<?xml version="1.0" encoding="UTF-8"?>
<svg class="icon" style="width: 1em;height: 1em;vertical-align: middle;fill: currentColor;overflow: hidden;" viewBox="0 0 1024 1024" version="1.1" xmlns="http://www.w3.org/2000/svg" xmlns:xlink="http://www.w3.org/1999/xlink" width="1024" height="1024"><path d="M490.66496 79.36h46.08v528.86016h-46.08z" fill="#FFB578"></path><path d="M543.65184 146.10944h162.29888v60.2624h-162.29888v-60.2624z" fill="#5FCEFF"></path><path d="M543.13984 307.68128h165.504v63.93856h-165.504V307.68128z" fill="#FF4893"></path><path d="M511.17056 608.22016c91.39712 0 165.504 74.07104 165.504 165.47328s-74.10176 165.504-165.504 165.504-165.47328-74.10176-165.47328-165.504 74.07104-165.47328 165.47328-165.47328z m100.89472 165.47328c0-55.72096-45.17376-100.864-100.89472-100.864-55.69024 0-100.864 45.13792-100.864 100.864 0 55.72096 45.17376 100.864 100.864 100.864 55.72096-0.00512 100.89472-45.14304 100.89472-100.864z" fill="#FFB578"></path><path d="M511.17056 961.57184c-103.5776 0-187.84768-84.28544-187.84768-187.88352 0-103.5776 84.26496-187.84768 187.84768-187.84768 103.59808 0 187.88352 84.26496 187.88352 187.84768-0.00512 103.6032-84.28544 187.88352-187.88352 187.88352z m0-330.97216c-78.90432 0-143.09376 64.18944-143.09376 143.09376 0 78.91968 64.18944 143.12448 143.09376 143.12448 78.91968 0 143.12448-64.2048 143.12448-143.12448 0-78.8992-64.20992-143.09376-143.12448-143.09376z" fill="#4F46A3"></path><path d="M543.13984 628.67968a22.37952 22.37952 0 0 1-22.37952-22.37952V80.73216a22.37952 22.37952 0 0 1 44.75904 0v525.57312a22.37952 22.37952 0 0 1-22.37952 22.3744z" fill="#4F46A3"></path><path d="M708.64384 330.05568h-165.504a22.37952 22.37952 0 0 1 0-44.75904h165.504a22.37952 22.37952 0 0 1 0 44.75904z m0-161.57184h-164.992a22.37952 22.37952 0 0 1-0.02048-44.75904h165.01248a22.37952 22.37952 0 0 1 0.02048 44.75904h-0.02048zM511.17056 896.93184c-67.95264 0-123.2384-55.28576-123.2384-123.2384 0-67.95776 55.28576-123.2384 123.2384-123.2384 67.97312 0 123.27424 55.28576 123.27424 123.2384-0.00512 67.95264-55.30112 123.2384-123.27424 123.2384z m0-201.72288c-43.27424 0-78.48448 35.20512-78.48448 78.48448 0 43.27424 35.20512 78.48448 78.48448 78.48448 43.29472 0 78.5152-35.20512 78.5152-78.48448 0-43.27424-35.2256-78.48448-78.5152-78.48448z m-32.384-64.60928a22.37952 22.37952 0 0 1-22.37952-22.37952V80.73216a22.37952 22.37952 0 0 1 44.75904 0v527.488a22.38464 22.38464 0 0 1-22.37952 22.37952z m229.85728-401.85344h-164.992a22.37952 22.37952 0 0 1-0.02048-44.75904h165.01248a22.37952 22.37952 0 0 1 0.02048 44.75904h-0.02048z m0 165.248h-165.504a22.37952 22.37952 0 0 1 0-44.75904h165.504a22.37952 22.37952 0 0 1 0 44.75904z" fill="#4F46A3"></path></svg>