<?xml version="1.0" encoding="UTF-8"?>
<svg class="icon" style="width: 1em;height: 1em;vertical-align: middle;fill: currentColor;overflow: hidden;" viewBox="0 0 1024 1024" version="1.1" xmlns="http://www.w3.org/2000/svg" xmlns:xlink="http://www.w3.org/1999/xlink" width="1024" height="1024"><path d="M811.310043 317.736992l39.130093 38.970248-230.272923 122.92092-21.994693-21.898785-115.34426-114.928663-21.898785-21.834848 122.121694-230.720489 39.098124 38.970247z" fill="#8B87C1"></path><path d="M811.917455 129.823034c51.4062 52.237395 51.022572 136.12413-0.607412 187.913958l-189.16075-188.52137 0.927102-0.927102c52.589054-51.725891 137.11517-51.054541 188.84106 1.534514z" fill="#FFB578"></path><path d="M482.82826 342.800712l115.34426 114.928663-2.30177 2.30177-344.306453 316.301583-91.783085-93.28563 321.896163-339.095501z" fill="#5FCEFF"></path><path d="M810.389335 341.032824a22.36873 22.36873 0 0 1-15.869426-38.15184l0.565852-0.553064 0.377234-0.386825c42.851288-42.985558 43.078268-113.157579 0.501914-156.41807-20.827823-21.176285-48.640879-32.966464-78.32732-33.206232-29.561762-0.284524-57.694508 11.09645-78.870794 31.924273a22.378321 22.378321 0 0 1-31.383997-31.908288c29.389129-28.906397 68.167563-44.77902 109.324492-44.779021 0.431582 0 0.859967 0 1.291549 0.006394 41.642858 0.335675 80.66106 16.876451 109.867965 46.569286 59.631832 60.594099 59.398458 158.831732-0.460354 219.150898a39.002217 39.002217 0 0 1-1.147688 1.154082 22.301595 22.301595 0 0 1-15.869427 6.598407zM251.567494 798.711049a22.314383 22.314383 0 0 1-15.955743-6.684725l-91.783085-93.285629a22.378321 22.378321 0 0 1-0.278131-31.102669l321.896164-339.095502a22.378321 22.378321 0 0 1 32.458156 30.814948L190.899866 682.768968l61.447672 62.4515 328.38268-301.669358a22.378321 22.378321 0 0 1 30.277868 32.96007l-344.303256 316.301583a22.314383 22.314383 0 0 1-15.137336 5.898286z" fill="#4F46A3"></path><path d="M427.937436 534.99852a22.375124 22.375124 0 0 1-15.696794-38.32767l72.18607-71.035185a22.378321 22.378321 0 0 1 31.39039 31.901895l-72.18607 71.038382a22.307989 22.307989 0 0 1-15.693596 6.422578zM274.588392 956.475015c-34.890999 0-69.75003-13.417402-96.076525-40.188268-24.961419-25.367425-38.711298-58.941301-38.711299-94.526028 0-36.399938 14.293353-70.517286 40.249009-96.063738a22.378321 22.378321 0 0 1 31.393587 31.898698c-17.336805 17.065068-26.885954 39.852593-26.885954 64.161843 0 23.768974 9.184702 46.192051 25.859749 63.138835 34.791895 35.376929 91.901371 35.85007 127.313465 1.045387l236.401386-232.565103a22.378321 22.378321 0 0 1 31.387193 31.905092l-236.410976 232.574694c-26.217802 25.770235-60.383104 38.618588-94.519635 38.618588z" fill="#4F46A3"></path><path d="M748.203178 852.099329a22.295202 22.295202 0 0 1-15.949349-6.681527 22.375124 22.375124 0 0 1 0.252555-31.646143c17.340002-17.065068 26.885954-39.862184 26.885955-64.197009 0-23.743399-9.178309-46.156886-25.840567-63.116456-34.804683-35.367338-91.926946-35.824495-127.32945-1.007025a22.378321 22.378321 0 0 1-31.646143-0.265343 22.378321 22.378321 0 0 1 0.265343-31.646143c52.991864-52.109519 138.502626-51.418988 190.624932 1.537711 24.951828 25.396197 38.685723 58.950891 38.685724 94.500452 0 36.425513-14.293353 70.549255-40.249009 96.098905a22.333564 22.333564 0 0 1-15.699991 6.422578zM620.173607 502.006481c-5.783198 0-11.496063-2.237832-15.795898-6.521682l-159.247329-158.675083a22.384715 22.384715 0 0 1-3.976947-26.316906l122.121694-230.720489a22.378321 22.378321 0 0 1 35.575137-5.380388l267.382573 266.455471a22.381518 22.381518 0 0 1-5.252512 35.597515l-230.269726 122.92092a22.333564 22.333564 0 0 1-10.536992 2.640642z m-131.721994-185.199787l135.778864 135.286541 188.978527-100.881471-224.528089-223.764029-100.229302 189.358959z" fill="#4F46A3"></path></svg>