<?xml version="1.0" encoding="UTF-8"?>
<svg class="icon" style="width: 1em;height: 1em;vertical-align: middle;fill: currentColor;overflow: hidden;" viewBox="0 0 1024 1024" version="1.1" xmlns="http://www.w3.org/2000/svg" xmlns:xlink="http://www.w3.org/1999/xlink" width="1024" height="1024"><path d="M999.239986 648.347913l-2.62146 0.031969c-27.333521 9.814492-57.448347-4.379757-67.262839-31.681309-9.814492-27.333521 4.411726-57.448347 31.713277-67.262839l2.429647-1.854204a171.165384 171.165384 0 0 1 35.741375 100.766383z" fill="#FF4893"></path><path d="M814.810652 727.311417c0 1.150885-0.031969 2.30177-0.063938 3.452655-1.790266 53.516156-45.715713 96.290718-99.679435 96.290719-53.899785 0-97.825232-42.774562-99.647467-96.290719-0.031969-1.150885-0.063938-2.30177-0.063938-3.452655 0-55.05067 44.660735-99.679436 99.711405-99.679435 55.114608 0 99.743374 44.628766 99.743373 99.679435z" fill="#8B87C1"></path><path d="M642.785302 348.222659l84.494146 128.355656h-234.396928v-128.355656zM429.839593 348.222659v128.355656h-203.994381l33.823234-128.355656z" fill="#5FCEFF"></path><path d="M409.15563 727.311417c0 1.150885-0.031969 2.30177-0.063938 3.452655-1.790266 53.516156-45.715713 96.290718-99.647466 96.290719-53.867816 0-97.825232-42.774562-99.647467-96.290719-0.031969-1.150885-0.063938-2.30177-0.063938-3.452655 0-55.05067 44.692704-99.679436 99.711405-99.679435 55.082639 0 99.711405 44.628766 99.711404 99.679435z" fill="#8B87C1"></path><path d="M615.355874 730.764072h-206.264182c0.031969-1.150885 0.063938-2.30177 0.063938-3.452655 0-55.05067-44.628766-99.679436-99.711404-99.679435-55.018701 0-99.711405 44.628766-99.711405 99.679435 0 1.150885 0.031969 2.30177 0.063938 3.452655H26.51831v-125.734195c0-68.89326 49.456089-124.711186 118.349349-124.711186v-0.671349l58.791047-194.595486h475.827042l147.441167 194.595486v0.671349c55.626112 0 105.082202 26.342481 136.571696 67.262839l-2.429647 1.854204c-27.301552 9.814492-41.52777 39.929318-31.713277 67.262839 9.814492 27.301552 39.929318 41.495801 67.262839 31.681309l2.62146-0.031969c0.031969 1.438606 0.063938 2.877213 0.063938 4.347788v78.068371H814.746714c0.031969-1.150885 0.063938-2.30177 0.063938-3.452655 0-55.05067-44.628766-99.679436-99.743373-99.679435-55.05067 0-99.711405 44.628766-99.711405 99.679435 0 1.150885 0.031969 2.30177 0.063938 3.452655h-0.063938z m111.923574-254.185757l-84.494146-128.355656h-149.902782v128.355656h234.396928z m-297.439855 0v-128.355656h-170.171147l-33.823234 128.355656h203.994381z" fill="#FFB578"></path><path d="M144.87725 502.032056a22.378321 22.378321 0 0 1-21.428841-28.855246l58.791047-194.595486a22.378321 22.378321 0 0 1 21.422447-15.907789h475.827042a22.378321 22.378321 0 0 1 17.835522 8.861815l147.441166 194.595486a22.378321 22.378321 0 0 1-35.67424 27.029815l-140.72767-185.733671H220.276207l-53.986101 178.690893a22.391109 22.391109 0 0 1-21.412856 15.914183z" fill="#4F46A3"></path><path d="M999.303924 753.142393a22.378321 22.378321 0 0 1-22.378321-22.378321v-78.068371c0-1.304336-0.028772-2.586295-0.057544-3.858662-0.783241-31.975424-11.528032-62.278867-31.077094-87.572764-28.653842-37.231132-71.971877-58.567263-118.867247-58.567263a22.378321 22.378321 0 1 1 0-44.756642c60.897805 0 117.144117 27.697968 154.311311 75.993581 25.38341 32.851375 39.357073 72.240417 40.376884 113.870488 0.035166 1.659193 0.067135 3.257644 0.067135 4.891262v78.068371a22.371927 22.371927 0 0 1-22.375124 22.378321z" fill="#4F46A3"></path><path d="M999.303924 753.142393h-184.493272a22.378321 22.378321 0 1 1 0-44.756642h184.493272a22.378321 22.378321 0 1 1 0 44.756642zM615.355874 753.142393h-206.200244a22.378321 22.378321 0 1 1 0-44.756642h206.200244a22.378321 22.378321 0 1 1 0 44.756642zM209.732821 753.142393H26.51831a22.378321 22.378321 0 1 1 0-44.756642h183.214511a22.378321 22.378321 0 1 1 0 44.756642z" fill="#4F46A3"></path><path d="M309.444226 849.433112c-66.166301 0-119.76238-51.789829-122.013-117.908177a150.631676 150.631676 0 0 1-0.076726-4.213518c0-67.304399 54.769342-122.057757 122.089726-122.057756s122.089726 54.753358 122.089725 122.057756c0 1.307533-0.031969 2.61187-0.067134 3.919403-2.221848 66.406069-55.814729 118.202292-122.022591 118.202292z m0-199.422809c-42.640292 0-77.333084 34.676807-77.333084 77.301114 0 0.939889 0.028772 1.879779 0.054348 2.816472 1.422622 41.751553 35.367338 74.548581 77.278736 74.548581 41.933777 0 75.88169-32.797028 77.281933-74.660473 0.025575-0.901527 0.05115-1.803053 0.05115-2.70458 0-42.624308-34.689594-77.301115-77.333083-77.301114zM715.067279 849.433112c-66.166301 0-119.759183-51.789829-122.013-117.908177a152.162992 152.162992 0 0 1-0.073529-4.213518c0-67.304399 54.769342-122.057757 122.086529-122.057756 67.336368 0 122.121695 54.753358 122.121694 122.057756 0 1.355487-0.035166 2.710974-0.070332 4.063264-2.218651 66.262208-55.830714 118.058431-122.051362 118.058431z m0-199.422809c-42.640292 0-77.329887 34.676807-77.329887 77.301114 0 0.94948 0.028772 1.89896 0.054347 2.845244 1.422622 41.719584 35.367338 74.523006 77.278736 74.523006 41.952958 0 75.913659-32.797028 77.3171-74.660473 0.022378-0.80562 0.05115-1.7551 0.05115-2.70458-0.006394-42.627505-34.71517-77.304311-77.371446-77.304311zM429.839593 498.956636h-203.994381a22.371927 22.371927 0 0 1-21.639836-28.081596l33.823234-128.355656a22.378321 22.378321 0 0 1 21.639836-16.675046h170.171147a22.378321 22.378321 0 0 1 22.378321 22.378321v128.355656a22.378321 22.378321 0 0 1-22.378321 22.378321z m-174.953714-44.756642h152.575393v-83.599014H276.912541l-22.026662 83.599014zM727.340189 498.956636H492.879323a22.378321 22.378321 0 0 1-22.378321-22.378321v-128.355656a22.378321 22.378321 0 0 1 22.378321-22.378321h149.902782a22.384715 22.384715 0 0 1 18.692292 10.073442l83.65336 127.080091a22.378321 22.378321 0 0 1-17.787568 35.958765z m-212.076151-44.756642h170.494034l-55.031488-83.599014h-115.462546v83.599014zM26.51831 751.543942a22.378321 22.378321 0 0 1-22.378321-22.378321v-124.135744c0-39.41142 13.967269-76.140639 39.328301-103.426206 26.173045-28.155125 62.18296-43.663301 101.399369-43.663301a22.378321 22.378321 0 1 1 0 44.756642c-54.711798 0-95.971028 43.992582-95.971028 102.332865v124.135744a22.378321 22.378321 0 0 1-22.378321 22.378321zM978.91088 673.859199c-30.741419 0-59.635029-19.050345-70.613193-49.590359-13.964072-38.899916 6.313883-81.911049 45.201011-95.891106a22.371927 22.371927 0 0 1 28.628267 13.487734 22.375124 22.375124 0 0 1-13.487734 28.628266c-15.671219 5.63614-23.848896 22.972945-18.222347 38.644164 5.629746 15.652037 22.95696 23.81373 38.637769 18.183984a22.36873 22.36873 0 0 1 28.62507 13.497324 22.378321 22.378321 0 0 1-13.497325 28.62507 74.654079 74.654079 0 0 1-25.271518 4.414923zM388.759389 307.430177a22.378321 22.378321 0 0 1-22.378321-22.378321v-82.448128a22.378321 22.378321 0 1 1 44.756642 0v82.448128a22.378321 22.378321 0 0 1-22.378321 22.378321z" fill="#4F46A3"></path></svg>